<?xml version="1.0" encoding="UTF-8"?>
<svg width="700pt" height="700pt" version="1.1" viewBox="0 0 700 700" xmlns="http://www.w3.org/2000/svg">
 <path d="m254.63 504h-79.941c-21.578 0-35.004-26.18-24.062-44.828l31.234-52.082c16.301 37.52 41.422 68.91 72.77 96.91m31.598-351.23c76.961-65.098 162.57-38.945 234.84-24.918 21.352 4.1719 43.18-4.5078 55.91-22.203l47.926-62.777c7.7344-10.781 6.5625-25.562-2.7891-34.945-12.031-12.066-32.074-10.078-41.508 4.1172-51.277 67.312-42.902 67.73-138.37 45.613-23.059-5.3477-47.008-7.5312-70.398-3.7539-127.4 20.582-222.36 137.23-209.77 272.47l-84.301 146.61c-21.855 37.324 4.9961 87.023 48.152 87.023h279.05c111.65 0.27734 183.34-72.688 198.13-170.71 16.023-106.4-52.195-199.78-148.58-221.73-89.828-20.469-181.94 41.887-182.5 134.29-0.39062 69.691 50.219 127.65 116.43 138.88 50.133 8.4844 101.49-22.23 106.8-72.938 5.3008-50.484-33.945-93.102-83.184-93.102-15.41 0-27.887 12.516-27.887 28 0 15.457 12.508 28 27.941 28 15.41 0 27.914 12.516 27.914 28 0 15.457-12.504 28-27.914 28-49.238 0-88.539-42.645-83.266-93.102 5.332-50.734 56.555-81.449 106.69-72.938 66.211 11.227 116.54 69.188 116.15 138.85-0.53125 90.805-90.523 153.47-179.18 135.16-88.93-18.371-155.79-97.355-155.79-191.97 0-60.145 27.02-113.96 69.504-149.91" fill-rule="evenodd"/>
</svg>
